PathFileType  4	(X/Y/Z) C:\Users\antoi\Documents\MyRepositories\mobilecap\ResultsAnalysis
DataRate	CameraRate	NumFrames	NumMarkers	Units	OrigDataRate	OrigDataStartFrame	OrigNumFrames
100.0	100.0	4	51	mm	100.0	37	145
Frame#	Time	r_knee			r_shank_antsup			r_ankle			r_calc			r_5meta			r_toe			L_knee			L_shank_antsup			L_ankle			L_calc			L_5meta			L_toe			r_sh2			r_sh3			r_sh4			L_sh2			L_sh3			r_thigh1			r_thigh2			r_thigh3			r_thigh4			r_thigh5			L_thigh1			L_thigh2			L_thigh3			L_thigh4			r.ASIS			r.PSIS			L.ASIS			L.PSIS			C7			R_Shoulder			L_Shoulder			R_Sternum			L_Sternum			R_humerus			R_elbow_med			R_elbow_lat			R_forearm			R_wrist_radius			R_wrist_ulna			L_humerus			L_elbow_med			L_elbow_lat			L_forearm			L_wrist_radius			L_wrist_ulna			R_HJC			L_HJC			R_HJC_reg			L_HJC_reg			
		X1	Y1	Z1	X2	Y2	Z2	X3	Y3	Z3	X4	Y4	Z4	X5	Y5	Z5	X6	Y6	Z6	X7	Y7	Z7	X8	Y8	Z8	X9	Y9	Z9	X10	Y10	Z10	X11	Y11	Z11	X12	Y12	Z12	X13	Y13	Z13	X14	Y14	Z14	X15	Y15	Z15	X16	Y16	Z16	X17	Y17	Z17	X18	Y18	Z18	X19	Y19	Z19	X20	Y20	Z20	X21	Y21	Z21	X22	Y22	Z22	X23	Y23	Z23	X24	Y24	Z24	X25	Y25	Z25	X26	Y26	Z26	X27	Y27	Z27	X28	Y28	Z28	X29	Y29	Z29	X30	Y30	Z30	X31	Y31	Z31	X32	Y32	Z32	X33	Y33	Z33	X34	Y34	Z34	X35	Y35	Z35	X36	Y36	Z36	X37	Y37	Z37	X38	Y38	Z38	X39	Y39	Z39	X40	Y40	Z40	X41	Y41	Z41	X42	Y42	Z42	X43	Y43	Z43	X44	Y44	Z44	X45	Y45	Z45	X46	Y46	Z46	X47	Y47	Z47	X48	Y48	Z48	X49	Y49	Z49	X50	Y50	Z50	X51	Y51	Z51	

37	0.36000000	175.60758	499.23554	-45.50118	207.13684	430.23349	-75.99141	130.87359	93.08958	-86.76961	57.39843	67.28011	-105.49379	242.46770	44.44426	-100.48620	267.49410	77.71794	-167.06182	292.81981	530.96277	-320.54913	280.64767	437.27310	-327.71880	58.16847	220.90525	-291.73435	-12.19169	226.15376	-235.42236	101.87097	111.35383	-340.51121	157.43517	106.57589	-294.07025	185.08945	316.27244	-56.23987	139.56599	441.65245	-26.98487	117.51482	331.48039	-28.19031	213.97628	496.51536	-315.80797	140.74956	398.15532	-319.58058	237.25834	816.77630	-7.48817	233.86794	702.72248	-23.18886	187.63200	679.79736	16.70439	133.15018	813.04664	36.78294	131.86834	697.44012	19.13017	205.18468	778.98157	-357.03924	276.69116	661.45216	-342.15050	115.76387	727.23396	-307.04494	190.10839	608.76391	-301.72582	234.89892	986.89769	-40.51879	34.66275	1020.57046	-91.60586	204.67057	966.85070	-288.25598	12.76912	1017.47660	-190.16190	39.02585	1433.94819	-154.91100	160.39168	1391.33829	6.18166	90.29348	1399.11674	-342.13878	177.99472	1392.29959	-153.81310	176.57212	1393.79983	-197.76776	168.19420	1259.82929	72.54371	66.43795	1062.92322	67.11803	107.01190	1077.54314	125.16018	159.95187	945.13464	127.16781	171.25379	813.04750	137.15703	161.81545	813.32429	171.95231	117.16477	1289.20119	-407.72751	56.62299	1056.43097	-396.18068	109.49759	1079.92847	-449.20692	171.48609	983.65499	-411.95878	209.54064	830.59392	-401.60334	212.96645	833.66576	-436.49792	156.85689	905.55744	-48.34293	127.87521	894.18740	-252.44368	167.56503	906.61957	-58.41712	131.74669	901.55895	-219.66780	
38	0.37000000	178.31599	498.99692	-45.12327	209.34215	429.75987	-75.35260	130.85482	93.09271	-86.80461	57.48128	67.42574	-105.55275	242.51180	44.37078	-100.42807	267.60370	77.57526	-167.01062	310.91466	534.50484	-318.59295	301.94186	440.30490	-326.56411	90.46559	212.69196	-293.18022	19.59353	213.69656	-237.12823	140.14913	106.37066	-342.98701	195.51133	103.92288	-296.29230	186.28252	315.95188	-55.75555	141.60068	441.66873	-26.77099	118.67867	331.66639	-28.14495	232.26684	496.38306	-314.26882	164.14832	394.44089	-319.02702	244.76981	815.47632	-7.13083	239.80342	701.75408	-22.88101	192.88524	679.47398	16.64754	140.68765	813.45462	36.73778	137.75026	697.85066	18.87027	220.37399	781.48062	-356.91125	293.57822	664.96311	-340.69767	130.88190	728.44610	-309.01643	206.99498	610.89529	-302.38464	244.25598	986.73674	-39.12776	44.66638	1020.66736	-92.82309	216.87093	968.28538	-287.27794	23.79664	1018.04915	-191.56912	49.64292	1434.50237	-154.31187	171.09816	1392.14197	6.58734	100.59245	1399.90975	-341.42525	188.46671	1393.10388	-153.23801	187.17741	1394.54664	-197.11666	180.82258	1260.73948	72.84642	82.05043	1062.19829	68.08345	122.90029	1077.28761	125.84318	178.73318	946.10866	126.39979	193.06654	814.18057	135.40693	184.02397	813.95310	170.26386	126.53305	1290.12866	-407.62367	63.25586	1058.09666	-397.02062	116.21561	1081.18843	-450.12021	177.06343	983.89433	-413.79513	213.40041	830.38777	-404.46369	216.50666	833.57675	-439.52329	166.24772	905.44211	-48.52724	139.86182	895.27708	-253.04158	177.24898	906.78558	-58.12677	143.09637	902.50174	-219.73336	
39	0.38000000	181.19537	498.72909	-44.82603	211.69725	429.21369	-74.82311	130.85667	93.10203	-86.87355	57.56908	67.57228	-105.62912	242.55834	44.29173	-100.36276	267.71056	77.39170	-166.96027	328.38742	537.46270	-316.54318	322.98318	442.79911	-325.22248	123.37916	204.18234	-294.76793	52.14974	200.89336	-239.24873	179.16609	101.37902	-345.16773	234.08240	101.43578	-298.04072	187.65345	315.60751	-55.37368	143.83678	441.66136	-26.64346	120.01712	331.84761	-28.17476	250.41136	495.36300	-313.13710	187.76395	390.00466	-318.87291	252.29870	814.12296	-6.71065	245.87833	700.75828	-22.54421	198.08769	679.07769	16.53623	148.13242	813.72868	36.62356	143.51274	698.15569	18.46558	235.37406	783.51763	-356.65641	309.98746	667.90381	-339.11710	145.75858	729.47489	-310.60686	223.36505	612.68960	-302.70283	253.53783	986.33022	-37.73963	54.66241	1020.54913	-94.18563	229.18453	969.34599	-286.29818	34.90422	1018.36318	-193.13459	60.25900	1434.76874	-153.79294	181.70530	1392.60553	7.00613	111.02924	1400.42369	-340.76921	198.97558	1393.60136	-152.63820	197.81515	1394.98515	-196.45417	193.42626	1261.31469	73.10207	97.77350	1061.11655	68.92453	138.88537	1076.70924	126.39428	197.63651	946.84842	125.45072	215.01298	815.17858	133.45659	206.39087	814.43932	168.35537	135.99388	1290.74450	-407.54817	69.88661	1059.51444	-397.89430	122.94628	1082.19916	-451.05390	182.50985	983.84139	-415.65903	217.02669	829.90685	-407.40990	219.92768	833.24051	-442.58926	175.57376	905.10036	-48.73463	151.93071	896.04295	-253.63600	186.85273	906.69913	-57.85575	154.50929	903.12124	-219.84049	
40	0.39000000	184.26519	498.43299	-44.59551	214.22547	428.59532	-74.40124	130.87258	93.12215	-86.97579	57.64879	67.70885	-105.71840	242.59878	44.20421	-100.28246	267.81004	77.17538	-166.89984	345.26336	539.79332	-314.42223	343.84614	444.76616	-323.69977	156.92667	195.50516	-296.46409	85.49885	187.87643	-241.74913	218.91248	96.49935	-346.96570	273.17014	99.24366	-299.22846	189.19740	315.23215	-55.08055	146.30437	441.63096	-26.58121	121.55123	332.02732	-28.25450	268.51051	493.46125	-312.44200	211.68987	384.90782	-319.15719	259.89477	812.75101	-6.21061	252.00396	699.70556	-22.16653	203.28476	678.60820	16.38705	155.47045	813.88089	36.44100	149.16283	698.37329	17.91065	250.21822	785.05518	-356.27389	325.90566	670.23313	-337.43172	160.37373	730.28973	-311.76694	239.17481	614.09927	-302.64691	262.80171	985.71698	-36.38047	64.67370	1020.24791	-95.68427	241.60112	970.04580	-285.32147	46.10453	1018.44330	-194.84829	70.87831	1434.75597	-153.35793	192.21360	1392.72782	7.44257	121.61751	1400.66464	-340.17785	209.52474	1393.80357	-152.02795	208.48805	1395.12898	-195.79461	205.97199	1261.55364	73.31673	113.59975	1059.67348	69.61399	154.94385	1075.81139	126.79960	216.62831	947.34575	124.33608	237.09513	816.05771	131.31129	228.87902	814.81634	166.22615	145.54141	1291.05568	-407.49952	76.53558	1060.69415	-398.77200	129.70834	1082.96731	-451.99438	187.82262	983.49806	-417.53179	220.40609	829.16141	-410.43854	223.23259	832.67229	-445.67047	184.87493	904.57098	-48.96634	164.08246	896.49983	-254.21842	196.41128	906.39314	-57.61346	166.00599	903.43837	-219.98717	
